<svg width="14" height="11" viewBox="0 0 14 11" fill="none" xmlns="http://www.w3.org/2000/svg">
<path fill-rule="evenodd" clip-rule="evenodd" d="M5 2.5C5 2.95643 4.87769 3.38429 4.66405 3.75259C5.32127 3.279 6.12805 3 7 3C7.87195 3 8.67873 3.279 9.33596 3.75259C9.12232 3.38429 9 2.95643 9 2.5C9 1.11929 10.1193 0 11.5 0C12.8807 0 14 1.11929 14 2.5C14 3.88071 12.8807 5 11.5 5C11.0436 5 10.6157 4.87768 10.2474 4.66404C10.721 5.32127 11 6.12805 11 7C11 9.20914 9.20914 11 7 11C4.79086 11 3 9.20914 3 7C3 6.12805 3.279 5.32127 3.75259 4.66405C3.38429 4.87769 2.95643 5 2.5 5C1.11929 5 0 3.88071 0 2.5C0 1.11929 1.11929 0 2.5 0C3.88071 0 5 1.11929 5 2.5Z" fill="#440099"/>
</svg>
