<svg width="92" height="62" viewBox="0 0 92 62" fill="none" xmlns="http://www.w3.org/2000/svg">
<g clip-path="url(#clip0_1_2)">
<path d="M10.103 24.0948C9.02414 27.8168 6.57212 30.9511 3.23736 33.0079C2.25655 33.5956 1.17766 34.0853 0.00069046 34.4771V38.1991C1.76615 37.7093 3.43353 37.0237 5.00282 36.0443C6.27787 35.2607 7.45485 34.3792 8.53374 33.3018L10.3973 31.5387V60.8247H13.9282V24.0948H10.103Z" fill="black"/>
<path d="M72.4827 22.9196C64.6362 22.9196 57.7705 27.621 54.73 34.2813C51.5914 27.621 44.8238 22.9196 36.9773 22.9196C26.1884 22.9196 17.3611 31.7347 17.3611 42.5088C17.3611 53.2829 26.1884 62.0981 36.9773 62.0981C44.8238 62.0981 51.6895 57.3966 54.73 50.7363C57.8686 57.3966 64.6362 62.0981 72.4827 62.0981C83.2716 62.0981 92.0989 53.2829 92.0989 42.5088C92.0989 31.7347 83.2716 22.9196 72.4827 22.9196ZM36.8793 58.3761C28.052 58.3761 20.892 51.226 20.892 42.4109C20.892 33.5957 28.052 26.4456 36.8793 26.4456C45.7065 26.4456 52.8665 33.5957 52.8665 42.4109C52.8665 51.226 45.7065 58.3761 36.8793 58.3761ZM72.4827 58.3761C63.6554 58.3761 56.4955 51.226 56.4955 42.4109C56.4955 33.5957 63.6554 26.4456 72.4827 26.4456C81.31 26.4456 88.4699 33.5957 88.4699 42.4109C88.4699 51.226 81.31 58.3761 72.4827 58.3761Z" fill="black"/>
<path d="M70.6194 10.9701C70.5213 10.2845 70.3252 9.50095 69.7367 9.10916C69.3444 8.91327 69.0501 8.91327 68.6578 9.10916C68.1674 9.403 67.9712 9.50095 67.5789 9.99068C67.3828 10.1866 66.5981 10.9701 66.5 11.166C66.3039 11.3619 66.1077 11.5578 65.9115 11.8517C65.5192 12.3414 64.9307 13.2229 64.9307 13.2229C64.9307 13.2229 64.9307 13.027 64.9307 12.8311C64.9307 12.7332 65.0288 12.3414 65.0288 12.2434C65.225 11.6558 65.3231 11.3619 65.7154 10.6763C66.0096 10.0886 66.5 9.403 66.6962 8.71738C66.6962 8.52148 66.6962 8.22765 66.5 8.22765C66.3039 8.22765 65.8135 8.81532 65.7154 8.91327C64.7346 10.0886 63.8518 11.6558 63.8518 13.125C63.8518 13.6147 63.9499 14.2024 64.2442 14.6921C64.2442 14.6921 64.2442 14.6921 64.2442 14.79C63.4595 16.749 63.2633 17.6305 62.9691 19.4915C62.871 20.0791 62.7729 20.9607 63.1653 21.5483C63.3614 21.8422 63.5576 21.9401 63.8518 22.0381C64.048 22.136 64.1461 22.136 64.2442 22.0381C64.3422 22.0381 64.3422 21.9401 64.3422 21.9401C64.3422 21.9401 64.7346 20.0791 64.9307 19.2956C65.0288 18.8058 65.4211 17.2387 65.6173 16.749C65.7154 16.4551 65.9115 15.9654 65.9115 15.9654C65.9115 15.9654 66.0096 15.9654 66.2058 15.9654C67.0885 15.9654 67.9712 15.6716 68.7559 15.0839C69.5405 14.5942 70.0309 14.0065 70.5213 13.2229C70.5213 12.6352 70.7175 11.7537 70.6194 10.9701ZM69.6386 11.6558C69.4425 12.3414 69.0501 12.9291 68.5597 13.3209C68.1674 13.6147 67.5789 13.9085 67.0885 14.0065C66.8923 14.0065 66.5981 14.0065 66.5981 14.0065C66.5981 14.0065 66.7943 13.6147 66.8923 13.5167C67.1866 13.027 67.5789 12.4393 67.9712 11.8517C68.2655 11.4599 68.854 10.6763 69.2463 10.2845C69.3444 10.1866 69.4425 10.2845 69.4425 10.2845C69.7367 10.7742 69.6386 11.3619 69.6386 11.6558Z" fill="black"/>
<path d="M61.5962 13.1249C60.9096 13.2229 60.125 13.3208 59.6346 13.4188C59.5365 13.4188 59.4384 13.4188 59.2423 13.4188C59.1442 13.4188 59.0461 13.4188 59.0461 13.4188C59.0461 13.4188 59.1442 13.027 59.2423 12.7331C59.3403 12.4393 59.4384 12.0475 59.4384 12.0475C59.4384 12.0475 59.6346 12.0475 59.7327 12.0475C59.9288 12.0475 61.6943 12.0475 61.8905 11.9496C62.1847 11.8516 62.2828 11.7537 62.2828 11.3619C62.2828 11.068 62.1847 10.7742 61.8905 10.7742C61.7924 10.7742 61.6943 10.7742 61.4981 10.7742C60.9096 10.7742 59.9288 10.7742 59.9288 10.7742L60.2231 9.79474C60.2231 9.79474 60.8116 9.79474 61.2039 9.79474C61.4981 9.79474 62.8713 9.79474 63.3617 9.5009C63.6559 9.30501 63.5578 9.01117 63.3617 8.71733C62.9693 8.2276 62.577 7.93376 61.9885 7.93376C61.5962 7.93376 60.3212 8.03171 60.0269 8.12965C59.7327 8.12965 59.4384 8.2276 59.0461 8.2276C58.7519 8.2276 57.9672 8.42349 57.8691 8.42349C57.5749 8.52144 57.4768 8.61938 57.673 8.91322C57.771 9.10912 57.9672 9.30501 58.2615 9.40295C58.4576 9.5009 58.948 9.59885 58.948 9.59885C58.948 9.59885 58.7519 10.0886 58.6538 10.3824C58.5557 10.5783 58.4576 10.8721 58.3595 10.8721C58.3595 10.8721 58.3595 10.8721 58.2615 10.8721C57.9672 10.8721 57.673 11.068 57.771 11.3619C57.771 11.5578 57.8691 12.0475 57.8691 12.1454V12.2434C57.673 12.8311 57.5749 12.8311 57.4768 13.2229C57.3787 13.7126 57.3787 14.1044 57.5749 14.4962C57.5749 14.5941 57.5749 14.5941 57.673 14.6921C57.673 14.79 57.8691 15.0838 57.8691 15.0838C57.9672 15.1818 58.0653 15.2797 58.0653 15.2797L58.2615 15.3777L58.5557 15.4756C58.948 15.5736 59.0461 15.5736 59.4384 15.5736C60.3212 15.4756 61.4981 14.8879 62.1847 14.3982C62.3809 14.2023 62.577 14.1044 62.577 13.8105C62.577 13.5167 62.4789 13.4188 62.2828 13.2229C62.1847 13.027 61.9885 13.1249 61.5962 13.1249Z" fill="black"/>
<path d="M56.398 9.79484C56.2999 9.59895 56.1037 8.91332 56.0056 8.81538C55.8095 8.42359 55.1229 7.34618 54.6325 7.15029C54.3383 7.05235 54.2402 7.15029 54.2402 7.44413C54.2402 7.64002 54.2402 7.83592 54.3383 7.93386C54.4363 8.52154 54.6325 9.10922 54.8287 9.69689C54.9268 10.1866 55.1229 10.9702 55.221 11.4599C55.221 11.6558 55.221 11.8517 55.3191 12.0476C55.3191 12.1456 55.3191 12.8312 55.3191 12.8312C55.3191 12.8312 55.221 12.8312 55.1229 12.8312C55.0248 12.8312 55.0248 12.7332 55.0248 12.6353C54.6325 12.1456 54.3383 11.5579 53.9459 10.9702C53.6517 10.4805 53.0632 9.6969 52.6709 9.10922C52.4747 8.91332 52.2786 8.71743 52.0824 8.61949C51.6901 8.61949 51.4939 9.20716 51.3958 9.501C50.9054 10.7743 50.6112 12.6353 50.7093 13.9086C50.7093 14.3004 50.8073 15.0839 51.2978 15.2798C51.4939 15.3778 51.592 15.3778 51.7882 15.2798C51.9843 15.1819 52.0824 14.986 52.1805 14.6922C52.2786 14.3004 52.2786 13.5168 52.2786 13.223C52.2786 13.125 52.2786 11.362 52.3766 10.9702C52.3766 10.8723 52.3766 10.8723 52.4747 10.8723C52.5728 10.8723 52.5728 10.8723 52.5728 10.9702C52.6709 11.1661 53.3575 12.4394 53.7498 13.223C53.8479 13.4189 54.5344 14.5942 54.9268 14.888C55.3191 15.0839 55.9076 14.888 56.1037 14.6922C56.2999 14.4963 56.496 14.2024 56.5941 14.0065C56.8884 13.3209 56.8884 12.3414 56.8884 11.7538C56.7903 10.9702 56.6922 10.3825 56.398 9.79484Z" fill="black"/>
<path d="M50.0222 8.61936C49.0414 8.03168 47.2759 8.03168 46.2951 8.22757C45.2162 8.32552 43.745 8.7173 43.1565 9.59882C42.9603 9.89266 42.7642 10.4803 42.8623 10.8721C42.9603 11.068 43.1565 11.3619 43.3527 11.4598C43.5488 11.5577 43.8431 11.5577 44.0392 11.6557C44.2354 11.6557 45.2162 11.7536 45.9028 11.8516C46.4913 11.8516 47.6682 12.0475 48.2567 12.2434C48.3548 12.2434 48.551 12.4393 48.649 12.4393C48.649 12.4393 48.8452 12.5372 48.8452 12.7331C48.8452 12.929 48.7471 13.0269 48.551 13.1249C47.6682 13.8105 46.3932 14.0064 45.2162 13.9085C44.8239 13.9085 44.5296 13.8105 44.1373 13.7126C43.9411 13.6146 43.745 13.4187 43.745 13.3208C43.8431 12.929 44.2354 12.831 44.5296 12.929C44.7258 12.929 44.922 13.0269 45.1181 13.1249C45.8047 13.4187 46.197 13.6146 46.7855 13.5167C46.9817 13.5167 47.8644 13.3208 47.9625 12.929C47.9625 12.831 47.9625 12.7331 47.8644 12.7331C47.7663 12.6352 47.2759 12.4393 47.1778 12.4393C46.6874 12.2434 45.8047 12.1454 45.2162 12.0475C44.5296 12.0475 43.6469 12.1454 43.2546 12.7331C42.9603 13.1249 42.9603 13.6146 43.1565 13.9085C43.4507 14.3982 44.0392 14.79 44.5296 15.0838C45.3143 15.4756 46.2951 15.6715 47.1778 15.5735C47.6682 15.4756 48.1586 15.3777 48.551 15.1818C48.9433 14.9859 49.4337 14.5941 49.6298 14.1043C49.9241 13.5167 49.9241 12.6352 49.5318 12.0475C49.3356 11.6557 49.1394 11.4598 48.7471 11.2639C48.3548 11.068 47.7663 10.9701 47.1778 10.8721C47.1778 10.8721 47.1778 10.8721 47.0797 10.8721L44.4315 10.5783C44.4315 10.5783 44.4315 10.5783 44.3335 10.5783C44.2354 10.5783 43.6469 10.4803 43.8431 10.2844C43.9411 10.1865 44.0392 10.1865 44.1373 10.1865C45.3143 9.89266 46.7855 9.89266 48.0605 9.79471C48.3548 9.79471 48.9433 9.69677 49.2375 9.59882C49.5318 9.50087 49.7279 9.30498 49.826 9.01114C50.3164 8.81525 50.2183 8.7173 50.0222 8.61936Z" fill="black"/>
<path d="M39.3316 9.89279C39.3316 9.89279 39.2335 9.6969 39.2335 9.59895C39.2335 9.501 39.0373 9.01127 38.9393 8.91333C38.8412 8.71743 38.7431 8.52154 38.645 8.32565C38.2527 7.54208 37.37 6.46467 36.6834 5.77904C36.2911 5.38726 35.8007 4.99547 35.5064 4.70164C35.3103 4.60369 34.1333 3.72217 33.9371 3.62423C33.3486 3.23244 32.1717 2.54682 31.4851 2.25298C30.5043 1.76325 29.1312 1.27352 28.1503 0.979677C26.3849 0.391999 24.6194 0.0981601 22.7559 0.196106C21.9712 0.196106 20.8923 0.391999 20.0096 0.587892C19.4211 0.783784 19.0288 0.979677 18.7346 1.56735C18.6365 1.6653 18.4403 1.95914 18.5384 2.15503C18.6365 2.35092 18.9307 2.44887 19.225 2.54682C19.5192 2.54682 20.1077 2.64476 20.2058 2.44887C20.3039 2.35092 20.3039 2.25298 20.2058 2.15503C20.2058 2.05709 20.0096 1.95914 19.9115 1.95914C19.7154 1.95914 19.4211 1.95914 19.3231 1.86119H19.225C19.225 1.86119 19.323 1.76325 19.4211 1.76325C19.5192 1.76325 19.6173 1.6653 19.7154 1.6653C20.4019 1.46941 21.7751 1.46941 22.4616 1.46941C24.9137 1.56735 27.2676 2.15503 29.5235 3.03655C31.7793 4.01601 34.4275 5.58315 35.8987 7.54208C36.4872 8.32565 37.1738 9.501 37.2719 10.4805C37.37 11.4599 37.0757 12.3414 36.4872 12.9291C36.0949 13.4189 35.5064 13.8106 34.8199 14.1045C33.4467 14.7901 31.6813 14.888 30.112 14.888C29.9158 14.888 29.1312 14.7901 28.935 14.7901C28.8369 14.6922 28.4446 14.5942 28.4446 14.5942L28.3465 9.79484C28.3465 9.79484 28.8369 9.79484 29.1312 9.79484C30.0139 9.89279 31.7793 10.1866 32.6621 10.4805C32.8582 10.5784 33.0544 10.6764 33.0544 10.8723C33.0544 10.9702 32.9563 11.1661 32.8582 11.264C32.7601 11.362 32.7601 11.362 32.6621 11.362C32.4659 11.4599 32.2697 11.5579 32.2697 11.5579C32.1717 11.6558 32.1717 11.7538 32.2697 11.7538C32.4659 11.8517 32.9563 11.9497 33.1525 11.9497C33.6429 11.9497 34.1333 11.5579 34.4275 11.1661C34.6237 10.7743 34.7218 10.4805 34.5256 9.99073C34.3294 9.501 33.839 9.01127 33.3486 8.81538C32.6621 8.52154 31.5832 8.2277 30.9947 8.12976C30.5043 8.03181 30.0139 8.03181 29.6216 7.93386C29.1312 7.93386 28.4446 7.93386 28.4446 7.93386C28.4446 7.93386 28.4446 7.24824 28.4446 6.85645C28.4446 6.17083 28.2484 4.79958 27.5619 4.4078C27.4638 4.30985 27.2676 4.30985 27.1695 4.4078C27.0715 4.60369 26.8753 5.19137 26.8753 5.38726C26.7772 5.6811 26.6791 7.05235 26.6791 7.34619C26.6791 7.54208 26.6791 8.12976 26.6791 8.12976C26.6791 8.12976 26.2868 8.2277 25.9926 8.2277C25.4041 8.32565 24.129 8.71743 23.6386 8.91333C23.0501 9.20716 22.1674 9.59895 21.9712 10.1866C21.7751 10.5784 21.8732 10.9702 22.0693 11.362C22.3636 11.8517 22.7559 12.3414 23.1482 12.7332C23.3444 12.8312 24.0309 13.4189 24.129 13.6147C24.7175 14.0065 25.4041 14.4963 26.0906 14.7901C26.2868 14.888 26.581 14.986 26.581 14.986C26.581 14.986 26.6791 15.5737 26.6791 15.8675C26.7772 16.2593 26.8753 16.6511 27.2676 16.749C27.4638 16.847 27.758 16.847 27.9542 16.749C28.1503 16.749 28.2484 16.6511 28.3465 16.4552C28.3465 16.3572 28.4446 16.1614 28.4446 16.1614C28.4446 15.9655 28.4446 15.7696 28.4446 15.7696C28.4446 15.7696 29.0331 15.8675 29.4254 15.9655C30.6024 16.1614 31.8774 16.1614 32.9563 16.0634C34.5256 15.8675 36.4872 15.2798 37.6642 14.2024C37.9584 13.9086 38.5469 13.223 38.7431 12.8312C38.8412 12.6353 39.0373 12.3414 39.1354 12.0476C39.1354 11.9497 39.3316 11.4599 39.3316 11.264C39.3316 11.1661 39.4297 10.4805 39.4297 10.0887C39.4297 10.2846 39.3316 9.89279 39.3316 9.89279ZM25.6983 13.8106C24.8156 13.4189 23.7367 12.7332 23.1482 12.2435C23.0501 12.1456 22.5597 11.6558 22.4616 11.5579C22.2655 11.362 22.1674 11.264 22.2655 10.9702C22.2655 10.7743 22.7559 10.5784 22.952 10.4805C23.6386 10.2846 24.8156 10.0887 25.4041 9.99073C25.8945 9.89279 26.581 9.89279 26.581 9.89279C26.581 9.89279 26.581 10.5784 26.581 11.264C26.581 12.6353 26.581 14.0065 26.581 14.0065C26.581 14.0065 25.9926 13.9086 25.6983 13.8106Z" fill="black"/>
<path d="M42.0778 12.1455C42.0778 11.4599 41.9798 9.79479 41.7836 9.01122C41.6855 8.71738 41.5874 8.42354 41.2932 8.22765H41.1951C40.999 8.22765 40.9009 8.42354 40.8028 8.61943C40.6066 9.01122 40.5085 9.99068 40.5085 10.2845C40.4105 11.166 40.3124 13.4188 40.5085 14.4962C40.6066 14.9859 40.7047 15.2798 41.1951 15.3777C41.3913 15.3777 41.7836 15.3777 41.8817 15.2798C41.9798 15.1818 42.0778 14.9859 42.1759 14.888C42.274 14.4962 42.274 13.9085 42.1759 13.5167C42.1759 13.125 42.0778 12.6352 42.0778 12.1455Z" fill="black"/>
<path d="M45.707 3.33043C45.6089 3.03659 45.5108 2.74275 45.2166 2.54686C45.1185 2.44892 44.7262 2.25302 44.53 2.25302C44.4319 2.25302 44.3338 2.25302 44.3338 2.25302L44.2357 2.15508C44.0396 1.95918 43.7453 1.76329 43.5492 1.66535C42.8626 1.46945 41.8818 1.5674 41.1952 1.86124C40.5087 2.15508 39.9202 2.54686 39.4298 3.13454C38.9394 3.62427 38.5471 4.3099 38.6451 4.99552C38.6451 5.19141 38.7432 5.5832 38.8413 5.77909C38.9394 5.87704 39.1355 5.97498 39.2336 6.17087C39.2336 6.26882 39.2336 6.36677 39.2336 6.56266C39.2336 6.8565 39.3317 7.15034 39.6259 7.34623C39.8221 7.44418 39.9202 7.44418 40.1163 7.34623C40.1163 7.34623 40.2144 7.24828 40.3125 7.15034C40.2144 7.05239 40.3125 6.8565 40.3125 6.8565H40.4106C40.4106 6.8565 40.7048 6.95445 40.8029 6.95445C40.901 6.95445 41.0972 6.95444 41.1952 7.05239C41.6856 7.05239 42.2741 6.95445 42.6665 6.75855C43.6473 6.36677 44.3338 5.87704 45.1185 5.09347C45.5108 4.70168 45.9031 4.01606 45.707 3.33043ZM40.1163 4.60373C39.9202 4.79963 39.724 5.09347 39.724 5.09347C39.724 5.09347 39.724 4.99552 39.6259 4.89757C39.4298 4.40784 39.8221 3.91811 40.2144 3.52632C40.4106 3.33043 40.901 3.03659 41.1952 2.93865C41.2933 2.93865 41.5876 2.8407 41.5876 2.8407C41.5876 2.8407 41.3914 2.93865 41.2933 3.03659C40.9991 3.62427 40.4106 4.21195 40.1163 4.60373ZM43.5492 5.19141C43.0588 5.48525 42.4703 5.68114 41.8818 5.68114C41.6856 5.68114 40.9991 5.68114 40.9991 5.68114C40.9991 5.68114 40.9991 5.5832 41.0972 5.5832C41.1952 5.48525 41.2933 5.28936 41.3914 5.19141C41.8818 4.60373 42.6665 3.82016 43.2549 3.52632C43.4511 3.42838 43.5492 3.33043 43.7453 3.33043C44.0396 3.23249 44.1377 3.23249 44.4319 3.33043C44.6281 3.42838 44.7262 3.52633 44.8242 3.82016C44.8242 4.3099 44.1377 4.89757 43.5492 5.19141Z" fill="black"/>
</g>
<defs>
<clipPath id="clip0_1_2">
<rect width="92" height="62" fill="white"/>
</clipPath>
</defs>
</svg>
